<svg width="24" height="24" viewBox="0 0 24 24" fill="none" xmlns="http://www.w3.org/2000/svg">
    <path fill="currentColor" d="M14.83 11.29L10.59 7.05C10.497 6.95627 10.3864 6.88188 10.2646 6.83111C10.1427 6.78034 10.012 6.7542 9.88 6.7542C9.74799 6.7542 9.61729 6.78034 9.49543 6.83111C9.37357 6.88188 9.26297 6.95627 9.17 7.05C8.98375 7.23736 8.87921 7.49081 8.87921 7.755C8.87921 8.01919 8.98375 8.27264 9.17 8.46L12.71 12L9.17 15.54C8.98375 15.7274 8.87921 15.9808 8.87921 16.245C8.87921 16.5092 8.98375 16.7626 9.17 16.95C9.26344 17.0427 9.37426 17.116 9.4961 17.1658C9.61794 17.2155 9.7484 17.2408 9.88 17.24C10.0116 17.2408 10.1421 17.2155 10.2639 17.1658C10.3857 17.116 10.4966 17.0427 10.59 16.95L14.83 12.71C14.9237 12.617 14.9981 12.5064 15.0489 12.3846C15.0997 12.2627 15.1258 12.132 15.1258 12C15.1258 11.868 15.0997 11.7373 15.0489 11.6154C14.9981 11.4936 14.9237 11.383 14.83 11.29Z"/>
</svg>
