<svg width="24" height="24" viewBox="0 0 24 24" fill="none" xmlns="http://www.w3.org/2000/svg">
    <path fill="currentColor" d="M17 13.41L12.71 9.17C12.617 9.07627 12.5064 9.00188 12.3846 8.95111C12.2627 8.90034 12.132 8.8742 12 8.8742C11.868 8.8742 11.7373 8.90034 11.6154 8.95111C11.4936 9.00188 11.383 9.07627 11.29 9.17L7.05 13.41C6.95627 13.503 6.88188 13.6136 6.83111 13.7354C6.78034 13.8573 6.7542 13.988 6.7542 14.12C6.7542 14.252 6.78034 14.3827 6.83111 14.5046C6.88188 14.6264 6.95627 14.737 7.05 14.83C7.23736 15.0163 7.49082 15.1208 7.755 15.1208C8.01919 15.1208 8.27264 15.0163 8.46 14.83L12 11.29L15.54 14.83C15.7263 15.0147 15.9777 15.1189 16.24 15.12C16.3716 15.1208 16.5021 15.0955 16.6239 15.0458C16.7457 14.996 16.8566 14.9227 16.95 14.83C17.0471 14.7404 17.1254 14.6324 17.1805 14.5123C17.2356 14.3923 17.2664 14.2625 17.2711 14.1304C17.2757 13.9984 17.2541 13.8667 17.2076 13.7431C17.1611 13.6194 17.0905 13.5062 17 13.41Z"/>
</svg>
